<svg xmlns="http://www.w3.org/2000/svg" width="21" height="20" viewBox="0 0 21 20" fill="#192231">
<path fill-rule="evenodd" clip-rule="evenodd" d="M5.37297 3.96668C5.39531 3.77738 5.46154 3.59592 5.5664 3.43674C5.67125 3.27756 5.81183 3.14507 5.97693 3.04981C6.14203 2.95456 6.32709 2.89917 6.51737 2.88807C6.70766 2.87696 6.89791 2.91044 7.07297 2.98585C7.95797 3.36418 9.9413 4.26335 12.458 5.71585C14.9755 7.16918 16.7463 8.43835 17.5155 9.01418C18.1721 9.50668 18.1738 10.4833 17.5163 10.9775C16.7546 11.55 15.0055 12.8025 12.458 14.2742C9.90797 15.7458 7.94797 16.6342 7.0713 17.0075C6.3163 17.33 5.4713 16.8408 5.37297 16.0267C5.25797 15.075 5.04297 12.9142 5.04297 9.99585C5.04297 7.07918 5.25714 4.91918 5.37297 3.96668Z" />
</svg>