<svg width="25" height="24" viewBox="0 0 25 24" fill="none" xmlns="http://www.w3.org/2000/svg">
<path d="M21.5 12C21.5 16.9706 17.4706 21 12.5 21M21.5 12C21.5 7.02944 17.4706 3 12.5 3M21.5 12C21.5 9.79086 17.4706 8 12.5 8C7.52944 8 3.5 9.79086 3.5 12M21.5 12C21.5 14.2091 17.4706 16 12.5 16C7.52944 16 3.5 14.2091 3.5 12M12.5 21C7.52944 21 3.5 16.9706 3.5 12M12.5 21C14.7091 21 16.5 16.9706 16.5 12C16.5 7.02944 14.7091 3 12.5 3M12.5 21C10.2909 21 8.5 16.9706 8.5 12C8.5 7.02944 10.2909 3 12.5 3M3.5 12C3.5 7.02944 7.52944 3 12.5 3" stroke="#192231" stroke-width="2" stroke-linecap="round" stroke-linejoin="round"/>
</svg>
