<svg width="66" height="33" viewBox="0 0 66 33" fill="none" xmlns="http://www.w3.org/2000/svg">
<path d="M59.2673 20.202L59.2273 23.342H60.0273C60.574 23.3287 61.0607 23.322 61.4873 23.322C61.914 23.322 62.3873 23.3287 62.9073 23.342H63.0073C63.1673 23.342 63.3207 23.3487 63.4673 23.362C63.6273 23.362 63.7807 23.362 63.9273 23.362C64.0873 23.3753 64.2407 23.402 64.3873 23.442C64.534 23.4687 64.6807 23.502 64.8273 23.542C65.054 23.622 65.2407 23.742 65.3873 23.902C65.5207 24.0753 65.5873 24.2687 65.5873 24.482C65.5873 24.5487 65.5873 24.6287 65.5873 24.722C65.5873 24.802 65.574 24.8753 65.5473 24.942C65.5207 25.0887 65.434 25.222 65.2873 25.342C65.2207 25.4353 65.094 25.502 64.9073 25.542C64.734 25.5953 64.5607 25.6287 64.3873 25.642C64.2007 25.682 64.014 25.702 63.8273 25.702H62.8873L59.1873 25.722L59.1473 29.642L63.1273 29.682H64.0673C64.174 29.682 64.274 29.682 64.3673 29.682C64.4607 29.682 64.5473 29.6887 64.6273 29.702C64.734 29.7287 64.8273 29.7487 64.9073 29.762C65.0007 29.762 65.0873 29.7753 65.1673 29.802C65.3273 29.8553 65.4607 29.9287 65.5673 30.022C65.7007 30.1553 65.7873 30.2953 65.8273 30.442C65.8407 30.5087 65.8473 30.582 65.8473 30.662C65.8607 30.7287 65.8607 30.802 65.8473 30.882C65.8473 31.0953 65.7807 31.2887 65.6473 31.462C65.4873 31.6487 65.3007 31.7687 65.0873 31.822C64.8073 31.942 64.5007 32.002 64.1673 32.002C64.0207 32.0153 63.8673 32.022 63.7073 32.022C63.5473 32.022 63.394 32.0287 63.2473 32.042H63.1273C62.0873 32.0687 61.0073 32.0687 59.8873 32.042C59.6207 32.042 59.4073 32.0353 59.2473 32.022C59.0873 32.022 58.9407 32.022 58.8073 32.022C58.6873 32.022 58.5607 32.022 58.4273 32.022C58.294 32.022 58.1207 32.022 57.9073 32.022C57.6007 32.0487 57.3473 31.9953 57.1473 31.862C57.0007 31.7687 56.8873 31.642 56.8073 31.482C56.7673 31.442 56.7473 31.402 56.7473 31.362C56.734 31.3353 56.7207 31.3153 56.7073 31.302C56.694 31.2887 56.6807 31.2687 56.6673 31.242C56.6407 31.1753 56.6207 31.1087 56.6073 31.042C56.594 30.962 56.5873 30.8887 56.5873 30.822C56.574 30.7553 56.5607 30.6887 56.5473 30.622C56.5473 30.5553 56.5407 30.4887 56.5273 30.422V30.102C56.5273 30.0487 56.5273 29.9953 56.5273 29.942C56.5407 29.8887 56.5473 29.8353 56.5473 29.782V28.222L56.5873 25.342V22.682C56.5873 22.202 56.5873 21.7753 56.5873 21.402C56.6007 21.0287 56.614 20.622 56.6273 20.182V20.082C56.6407 19.9353 56.6473 19.802 56.6473 19.682C56.6607 19.5487 56.6673 19.4153 56.6673 19.282C56.6807 19.0153 56.754 18.7553 56.8873 18.502C56.9407 18.3953 56.994 18.302 57.0473 18.222C57.114 18.142 57.2007 18.0753 57.3073 18.022C57.5073 17.902 57.714 17.842 57.9273 17.842C58.034 17.842 58.114 17.8487 58.1673 17.862V17.842C58.4073 17.842 58.6007 17.842 58.7473 17.842C58.894 17.842 59.034 17.842 59.1673 17.842C59.314 17.842 59.4673 17.842 59.6273 17.842C59.7873 17.8287 60.0073 17.822 60.2873 17.822C60.8207 17.8087 61.3273 17.802 61.8073 17.802C62.2873 17.802 62.7807 17.8087 63.2873 17.822H63.3673C63.514 17.8353 63.6673 17.842 63.8273 17.842C63.9873 17.842 64.1407 17.8487 64.2873 17.862C64.434 17.862 64.5807 17.882 64.7273 17.922C64.874 17.9487 65.0207 17.9887 65.1673 18.042C65.394 18.1087 65.5807 18.222 65.7273 18.382C65.8473 18.5687 65.9073 18.7553 65.9073 18.942C65.9073 19.022 65.9073 19.102 65.9073 19.182C65.9073 19.2487 65.894 19.3153 65.8673 19.382C65.854 19.5153 65.774 19.6553 65.6273 19.802C65.574 19.8287 65.514 19.862 65.4473 19.902C65.394 19.942 65.3273 19.9753 65.2473 20.002C65.1673 20.0287 65.0807 20.0487 64.9873 20.062C64.9073 20.062 64.8273 20.0687 64.7473 20.082C64.6407 20.1087 64.5407 20.122 64.4473 20.122C64.3673 20.122 64.274 20.122 64.1673 20.122H63.2673L59.2673 20.142V20.202Z" fill="#00AE31"/>
<path d="M55.6883 30.442C55.715 30.5087 55.7283 30.6087 55.7283 30.742C55.7283 30.862 55.7283 30.962 55.7283 31.042C55.7283 31.1487 55.7083 31.2487 55.6683 31.342C55.6283 31.4353 55.575 31.522 55.5083 31.602C55.3883 31.762 55.215 31.882 54.9883 31.962C54.6683 32.0687 54.3683 32.122 54.0883 32.122C53.9417 32.1353 53.7883 32.142 53.6283 32.142C53.4683 32.142 53.3083 32.1553 53.1483 32.182H53.0683C52.0417 32.1953 50.9817 32.1953 49.8883 32.182C49.6217 32.1687 49.3217 32.1687 48.9883 32.182C48.655 32.2087 48.3283 32.202 48.0083 32.162C47.6883 32.1353 47.395 32.062 47.1283 31.942C46.875 31.8087 46.695 31.602 46.5883 31.322C46.5617 31.2553 46.5417 31.1953 46.5283 31.142C46.515 31.0753 46.5083 31.0087 46.5083 30.942C46.455 30.4887 46.435 30.042 46.4483 29.602C46.4617 29.162 46.4683 28.7287 46.4683 28.302L46.5083 25.402V22.722C46.5083 22.242 46.5083 21.8153 46.5083 21.442C46.5217 21.0687 46.535 20.6553 46.5483 20.202V20.102C46.5617 19.9687 46.5683 19.8353 46.5683 19.702C46.5817 19.5687 46.5883 19.4353 46.5883 19.302C46.615 18.9953 46.6883 18.7353 46.8083 18.522C46.8883 18.322 47.0283 18.162 47.2283 18.042C47.4017 17.922 47.6083 17.862 47.8483 17.862C47.9417 17.862 48.0283 17.8687 48.1083 17.882C48.2017 17.882 48.2883 17.8887 48.3683 17.902C48.4483 17.9153 48.5217 17.942 48.5883 17.982C48.6683 18.022 48.7483 18.0753 48.8283 18.142C48.9083 18.2353 48.9817 18.3487 49.0483 18.482C49.1017 18.6287 49.135 18.7753 49.1483 18.922C49.1617 19.0153 49.175 19.102 49.1883 19.182C49.2017 19.262 49.2083 19.342 49.2083 19.422C49.1817 19.502 49.1683 19.582 49.1683 19.662C49.1683 19.742 49.1683 19.8153 49.1683 19.882V20.242L49.0883 29.662L53.0483 29.702H53.9883C54.0683 29.702 54.155 29.7087 54.2483 29.722C54.3417 29.722 54.435 29.7287 54.5283 29.742C54.635 29.7553 54.7283 29.7687 54.8083 29.782C54.8883 29.7953 54.9683 29.8153 55.0483 29.842C55.195 29.882 55.315 29.9487 55.4083 30.042C55.555 30.1753 55.6483 30.3087 55.6883 30.442Z" fill="#FF0C0C"/>
<path d="M45.6006 23.922C45.6272 24.362 45.6206 24.8153 45.5806 25.282C45.5539 25.7487 45.5072 26.202 45.4406 26.642C45.3072 27.402 45.0606 28.142 44.7006 28.862C44.3406 29.582 43.8139 30.1953 43.1206 30.702C42.4006 31.2353 41.5806 31.602 40.6606 31.802C39.7406 31.9887 38.8272 32.102 37.9206 32.142C37.6139 32.1687 37.3006 32.1753 36.9806 32.162C36.6739 32.162 36.3739 32.1287 36.0806 32.062C35.8406 32.022 35.6606 31.9487 35.5406 31.842C35.4739 31.802 35.4206 31.7487 35.3806 31.682C35.3406 31.6153 35.3072 31.5487 35.2806 31.482C35.2406 31.4153 35.2072 31.3487 35.1806 31.282C35.1672 31.202 35.1472 31.122 35.1206 31.042C35.1072 30.9753 35.0939 30.9153 35.0806 30.862C35.0806 30.7953 35.0806 30.7353 35.0806 30.682V19.262C35.0806 19.1687 35.0806 19.082 35.0806 19.002C35.0806 18.922 35.0939 18.842 35.1206 18.762C35.1472 18.5753 35.1872 18.422 35.2406 18.302C35.2939 18.142 35.3672 18.0287 35.4606 17.962C35.5406 17.8953 35.6206 17.8487 35.7006 17.822C35.7806 17.782 35.8539 17.7487 35.9206 17.722C36.0006 17.6953 36.0806 17.6953 36.1606 17.722C36.2539 17.7353 36.3539 17.7153 36.4606 17.662L39.8006 17.742C40.6806 17.7687 41.4672 17.9753 42.1606 18.362C42.8539 18.7353 43.4472 19.2153 43.9406 19.802C44.4339 20.3887 44.8206 21.0487 45.1006 21.782C45.3806 22.502 45.5472 23.2153 45.6006 23.922ZM41.8806 27.722C42.1339 27.322 42.3206 26.862 42.4406 26.342C42.5606 25.822 42.6139 25.2953 42.6006 24.762C42.5872 24.2153 42.5139 23.6887 42.3806 23.182C42.2472 22.662 42.0606 22.202 41.8206 21.802C41.6339 21.5087 41.3939 21.2687 41.1006 21.082C40.8072 20.8953 40.4806 20.7553 40.1206 20.662C39.7606 20.5553 39.3739 20.482 38.9606 20.442C38.5606 20.402 38.1672 20.382 37.7806 20.382C37.7939 20.7687 37.8006 21.142 37.8006 21.502C37.8006 21.862 37.8006 22.242 37.8006 22.642C37.7872 23.122 37.7806 23.5887 37.7806 24.042C37.7806 24.4953 37.7806 24.9353 37.7806 25.362V29.442C38.1939 29.4287 38.5872 29.4087 38.9606 29.382C39.3472 29.342 39.7139 29.262 40.0606 29.142C40.4206 29.022 40.7472 28.8553 41.0406 28.642C41.3472 28.4153 41.6272 28.1087 41.8806 27.722Z" fill="#00AE31"/>
<path d="M26.7641 18.282C27.6575 17.9487 28.4641 17.802 29.1841 17.842C29.9175 17.882 30.5708 18.0687 31.1441 18.402C31.7175 18.722 32.2041 19.1553 32.6041 19.702C33.0175 20.2487 33.3508 20.862 33.6041 21.542C33.8041 22.0487 33.9575 22.582 34.0641 23.142C34.1708 23.702 34.2308 24.262 34.2441 24.822C34.2708 25.3687 34.2508 25.9087 34.1841 26.442C34.1308 26.9753 34.0375 27.4687 33.9041 27.922C33.8241 28.2287 33.7308 28.5087 33.6241 28.762C33.5175 29.0153 33.3908 29.2687 33.2441 29.522C32.9108 30.0953 32.4775 30.562 31.9441 30.922C31.4241 31.282 30.8508 31.5353 30.2241 31.682C29.7975 31.7887 29.3575 31.842 28.9041 31.842C28.4508 31.8287 28.0041 31.7687 27.5641 31.662C27.1241 31.542 26.6975 31.3753 26.2841 31.162C25.8841 30.9353 25.5175 30.6553 25.1841 30.322C24.7708 29.922 24.4308 29.462 24.1641 28.942C23.8975 28.4087 23.6908 27.8553 23.5441 27.282C23.3975 26.6953 23.3041 26.1087 23.2641 25.522C23.2241 24.9353 23.2241 24.3753 23.2641 23.842C23.3041 23.3487 23.3975 22.822 23.5441 22.262C23.7041 21.702 23.9308 21.162 24.2241 20.642C24.5175 20.122 24.8708 19.6553 25.2841 19.242C25.7108 18.8153 26.2041 18.4953 26.7641 18.282ZM31.4441 26.842C31.6041 26.2153 31.6708 25.5087 31.6441 24.722C31.6175 23.9353 31.4908 23.1953 31.2641 22.502C31.1175 22.0753 30.9308 21.702 30.7041 21.382C30.4908 21.0487 30.2308 20.7953 29.9241 20.622C29.6308 20.4487 29.2841 20.362 28.8841 20.362C28.4841 20.362 28.0375 20.482 27.5441 20.722C27.2508 20.8687 26.9975 21.0687 26.7841 21.322C26.5841 21.5753 26.4175 21.862 26.2841 22.182C26.1641 22.502 26.0641 22.8353 25.9841 23.182C25.9175 23.5287 25.8775 23.862 25.8641 24.182C25.8375 24.5287 25.8308 24.8953 25.8441 25.282C25.8575 25.6553 25.8975 26.0353 25.9641 26.422C26.0441 26.7953 26.1508 27.1553 26.2841 27.502C26.4175 27.8353 26.5975 28.1353 26.8241 28.402C27.1708 28.802 27.5708 29.082 28.0241 29.242C28.4908 29.3887 28.9508 29.4087 29.4041 29.302C30.1375 29.142 30.6975 28.6553 31.0841 27.842C31.2441 27.5487 31.3641 27.2153 31.4441 26.842Z" fill="#FFC700"/>
<path d="M14.9079 18.282C15.8013 17.9487 16.6079 17.802 17.3279 17.842C18.0613 17.882 18.7146 18.0687 19.2879 18.402C19.8613 18.722 20.3479 19.1553 20.7479 19.702C21.1613 20.2487 21.4946 20.862 21.7479 21.542C21.9479 22.0487 22.1013 22.582 22.2079 23.142C22.3146 23.702 22.3746 24.262 22.3879 24.822C22.4146 25.3687 22.3946 25.9087 22.3279 26.442C22.2746 26.9753 22.1813 27.4687 22.0479 27.922C21.9679 28.2287 21.8746 28.5087 21.7679 28.762C21.6613 29.0153 21.5346 29.2687 21.3879 29.522C21.0546 30.0953 20.6213 30.562 20.0879 30.922C19.5679 31.282 18.9946 31.5353 18.3679 31.682C17.9413 31.7887 17.5013 31.842 17.0479 31.842C16.5946 31.8287 16.1479 31.7687 15.7079 31.662C15.2679 31.542 14.8413 31.3753 14.4279 31.162C14.0279 30.9353 13.6613 30.6553 13.3279 30.322C12.9146 29.922 12.5746 29.462 12.3079 28.942C12.0413 28.4087 11.8346 27.8553 11.6879 27.282C11.5413 26.6953 11.4479 26.1087 11.4079 25.522C11.3679 24.9353 11.3679 24.3753 11.4079 23.842C11.4479 23.3487 11.5413 22.822 11.6879 22.262C11.8479 21.702 12.0746 21.162 12.3679 20.642C12.6613 20.122 13.0146 19.6553 13.4279 19.242C13.8546 18.8153 14.3479 18.4953 14.9079 18.282ZM19.5879 26.842C19.7479 26.2153 19.8146 25.5087 19.7879 24.722C19.7613 23.9353 19.6346 23.1953 19.4079 22.502C19.2613 22.0753 19.0746 21.702 18.8479 21.382C18.6346 21.0487 18.3746 20.7953 18.0679 20.622C17.7746 20.4487 17.4279 20.362 17.0279 20.362C16.6279 20.362 16.1813 20.482 15.6879 20.722C15.3946 20.8687 15.1413 21.0687 14.9279 21.322C14.7279 21.5753 14.5613 21.862 14.4279 22.182C14.3079 22.502 14.2079 22.8353 14.1279 23.182C14.0613 23.5287 14.0213 23.862 14.0079 24.182C13.9813 24.5287 13.9746 24.8953 13.9879 25.282C14.0013 25.6553 14.0413 26.0353 14.1079 26.422C14.1879 26.7953 14.2946 27.1553 14.4279 27.502C14.5613 27.8353 14.7413 28.1353 14.9679 28.402C15.3146 28.802 15.7146 29.082 16.1679 29.242C16.6346 29.3887 17.0946 29.4087 17.5479 29.302C18.2813 29.142 18.8413 28.6553 19.2279 27.842C19.3879 27.5487 19.5079 27.2153 19.5879 26.842Z" fill="#FF0C0C"/>
<path d="M10.52 23.922C10.5467 24.362 10.54 24.8153 10.5 25.282C10.4733 25.7487 10.4267 26.202 10.36 26.642C10.2267 27.402 9.98 28.142 9.62 28.862C9.26 29.582 8.73333 30.1953 8.04 30.702C7.32 31.2353 6.5 31.602 5.58 31.802C4.66 31.9887 3.74667 32.102 2.84 32.142C2.53333 32.1687 2.22 32.1753 1.9 32.162C1.59333 32.162 1.29333 32.1287 1 32.062C0.76 32.022 0.58 31.9487 0.46 31.842C0.393333 31.802 0.34 31.7487 0.3 31.682C0.26 31.6153 0.226667 31.5487 0.2 31.482C0.16 31.4153 0.126667 31.3487 0.1 31.282C0.0866667 31.202 0.0666666 31.122 0.04 31.042C0.0266666 30.9753 0.0133333 30.9153 0 30.862C0 30.7953 0 30.7353 0 30.682V19.262C0 19.1687 0 19.082 0 19.002C0 18.922 0.0133333 18.842 0.04 18.762C0.0666666 18.5753 0.106667 18.422 0.16 18.302C0.213333 18.142 0.286667 18.0287 0.38 17.962C0.46 17.8953 0.54 17.8487 0.62 17.822C0.7 17.782 0.773333 17.7487 0.84 17.722C0.92 17.6953 1 17.6953 1.08 17.722C1.17333 17.7353 1.27333 17.7153 1.38 17.662L4.72 17.742C5.6 17.7687 6.38667 17.9753 7.08 18.362C7.77333 18.7353 8.36667 19.2153 8.86 19.802C9.35333 20.3887 9.74 21.0487 10.02 21.782C10.3 22.502 10.4667 23.2153 10.52 23.922ZM6.8 27.722C7.05333 27.322 7.24 26.862 7.36 26.342C7.48 25.822 7.53333 25.2953 7.52 24.762C7.50667 24.2153 7.43333 23.6887 7.3 23.182C7.16667 22.662 6.98 22.202 6.74 21.802C6.55333 21.5087 6.31333 21.2687 6.02 21.082C5.72667 20.8953 5.4 20.7553 5.04 20.662C4.68 20.5553 4.29333 20.482 3.88 20.442C3.48 20.402 3.08667 20.382 2.7 20.382C2.71333 20.7687 2.72 21.142 2.72 21.502C2.72 21.862 2.72 22.242 2.72 22.642C2.70667 23.122 2.7 23.5887 2.7 24.042C2.7 24.4953 2.7 24.9353 2.7 25.362V29.442C3.11333 29.4287 3.50667 29.4087 3.88 29.382C4.26667 29.342 4.63333 29.262 4.98 29.142C5.34 29.022 5.66667 28.8553 5.96 28.642C6.26667 28.4153 6.54667 28.1087 6.8 27.722Z" fill="#3455FF"/>
<path d="M59.3064 3.202L59.2664 6.342H60.0664C60.6131 6.32867 61.0997 6.322 61.5264 6.322C61.9531 6.322 62.4264 6.32867 62.9464 6.342H63.0464C63.2064 6.342 63.3597 6.34867 63.5064 6.362C63.6664 6.362 63.8197 6.362 63.9664 6.362C64.1264 6.37533 64.2797 6.402 64.4264 6.442C64.5731 6.46867 64.7197 6.502 64.8664 6.542C65.0931 6.622 65.2797 6.742 65.4264 6.902C65.5597 7.07534 65.6264 7.26867 65.6264 7.482C65.6264 7.54867 65.6264 7.62867 65.6264 7.722C65.6264 7.802 65.6131 7.87533 65.5864 7.942C65.5597 8.08867 65.4731 8.222 65.3264 8.342C65.2597 8.43533 65.1331 8.502 64.9464 8.542C64.7731 8.59534 64.5997 8.62867 64.4264 8.642C64.2397 8.682 64.0531 8.702 63.8664 8.702H62.9264L59.2264 8.722L59.1864 12.642L63.1664 12.682H64.1064C64.2131 12.682 64.3131 12.682 64.4064 12.682C64.4997 12.682 64.5864 12.6887 64.6664 12.702C64.7731 12.7287 64.8664 12.7487 64.9464 12.762C65.0397 12.762 65.1264 12.7753 65.2064 12.802C65.3664 12.8553 65.4997 12.9287 65.6064 13.022C65.7397 13.1553 65.8264 13.2953 65.8664 13.442C65.8797 13.5087 65.8864 13.582 65.8864 13.662C65.8997 13.7287 65.8997 13.802 65.8864 13.882C65.8864 14.0953 65.8197 14.2887 65.6864 14.462C65.5264 14.6487 65.3397 14.7687 65.1264 14.822C64.8464 14.942 64.5397 15.002 64.2064 15.002C64.0597 15.0153 63.9064 15.022 63.7464 15.022C63.5864 15.022 63.4331 15.0287 63.2864 15.042H63.1664C62.1264 15.0687 61.0464 15.0687 59.9264 15.042C59.6597 15.042 59.4464 15.0353 59.2864 15.022C59.1264 15.022 58.9797 15.022 58.8464 15.022C58.7264 15.022 58.5997 15.022 58.4664 15.022C58.3331 15.022 58.1597 15.022 57.9464 15.022C57.6397 15.0487 57.3864 14.9953 57.1864 14.862C57.0397 14.7687 56.9264 14.642 56.8464 14.482C56.8064 14.442 56.7864 14.402 56.7864 14.362C56.7731 14.3353 56.7597 14.3153 56.7464 14.302C56.7331 14.2887 56.7197 14.2687 56.7064 14.242C56.6797 14.1753 56.6597 14.1087 56.6464 14.042C56.6331 13.962 56.6264 13.8887 56.6264 13.822C56.6131 13.7553 56.5997 13.6887 56.5864 13.622C56.5864 13.5553 56.5797 13.4887 56.5664 13.422V13.102C56.5664 13.0487 56.5664 12.9953 56.5664 12.942C56.5797 12.8887 56.5864 12.8353 56.5864 12.782V11.222L56.6264 8.342V5.682C56.6264 5.202 56.6264 4.77534 56.6264 4.402C56.6397 4.02867 56.6531 3.622 56.6664 3.182V3.082C56.6797 2.93533 56.6864 2.802 56.6864 2.682C56.6997 2.54867 56.7064 2.41534 56.7064 2.282C56.7197 2.01533 56.7931 1.75533 56.9264 1.502C56.9797 1.39533 57.0331 1.302 57.0864 1.222C57.1531 1.142 57.2397 1.07533 57.3464 1.022C57.5464 0.902001 57.7531 0.842001 57.9664 0.842001C58.0731 0.842001 58.1531 0.848668 58.2064 0.862001V0.842001C58.4464 0.842001 58.6397 0.842001 58.7864 0.842001C58.9331 0.842001 59.0731 0.842001 59.2064 0.842001C59.3531 0.842001 59.5064 0.842001 59.6664 0.842001C59.8264 0.828668 60.0464 0.822002 60.3264 0.822002C60.8597 0.808669 61.3664 0.802002 61.8464 0.802002C62.3264 0.802002 62.8197 0.808669 63.3264 0.822002H63.4064C63.5531 0.835335 63.7064 0.842001 63.8664 0.842001C64.0264 0.842001 64.1797 0.848668 64.3264 0.862001C64.4731 0.862001 64.6197 0.882001 64.7664 0.922002C64.9131 0.948668 65.0597 0.988668 65.2064 1.042C65.4331 1.10867 65.6197 1.222 65.7664 1.382C65.8864 1.56867 65.9464 1.75533 65.9464 1.942C65.9464 2.022 65.9464 2.102 65.9464 2.182C65.9464 2.24867 65.9331 2.31534 65.9064 2.382C65.8931 2.51534 65.8131 2.65533 65.6664 2.802C65.6131 2.82867 65.5531 2.862 65.4864 2.902C65.4331 2.942 65.3664 2.97533 65.2864 3.002C65.2064 3.02867 65.1197 3.04867 65.0264 3.062C64.9464 3.062 64.8664 3.06867 64.7864 3.082C64.6797 3.10867 64.5797 3.122 64.4864 3.122C64.4064 3.122 64.3131 3.122 64.2064 3.122H63.3064L59.3064 3.142V3.202Z" fill="#3455FF"/>
<path d="M55.7274 13.442C55.7541 13.5087 55.7674 13.6087 55.7674 13.742C55.7674 13.862 55.7674 13.962 55.7674 14.042C55.7674 14.1487 55.7474 14.2487 55.7074 14.342C55.6674 14.4353 55.6141 14.522 55.5474 14.602C55.4274 14.762 55.2541 14.882 55.0274 14.962C54.7074 15.0687 54.4074 15.122 54.1274 15.122C53.9807 15.1353 53.8274 15.142 53.6674 15.142C53.5074 15.142 53.3474 15.1553 53.1874 15.182H53.1074C52.0807 15.1953 51.0207 15.1953 49.9274 15.182C49.6607 15.1687 49.3607 15.1687 49.0274 15.182C48.6941 15.2087 48.3674 15.202 48.0474 15.162C47.7274 15.1353 47.4341 15.062 47.1674 14.942C46.9141 14.8087 46.7341 14.602 46.6274 14.322C46.6007 14.2553 46.5807 14.1953 46.5674 14.142C46.5541 14.0753 46.5474 14.0087 46.5474 13.942C46.4941 13.4887 46.4741 13.042 46.4874 12.602C46.5007 12.162 46.5074 11.7287 46.5074 11.302L46.5474 8.402V5.722C46.5474 5.242 46.5474 4.81533 46.5474 4.442C46.5607 4.06867 46.5741 3.65533 46.5874 3.202V3.102C46.6007 2.96867 46.6074 2.83533 46.6074 2.702C46.6207 2.56867 46.6274 2.43533 46.6274 2.302C46.6541 1.99533 46.7274 1.73533 46.8474 1.522C46.9274 1.322 47.0674 1.162 47.2674 1.042C47.4407 0.922 47.6474 0.862 47.8874 0.862C47.9807 0.862 48.0674 0.868666 48.1474 0.881999C48.2407 0.881999 48.3274 0.888666 48.4074 0.902C48.4874 0.915333 48.5607 0.942 48.6274 0.981999C48.7074 1.022 48.7874 1.07533 48.8674 1.142C48.9474 1.23533 49.0207 1.34867 49.0874 1.482C49.1407 1.62867 49.1741 1.77533 49.1874 1.922C49.2007 2.01533 49.2141 2.102 49.2274 2.182C49.2407 2.262 49.2474 2.342 49.2474 2.422C49.2207 2.502 49.2074 2.582 49.2074 2.662C49.2074 2.742 49.2074 2.81533 49.2074 2.882V3.242L49.1274 12.662L53.0874 12.702H54.0274C54.1074 12.702 54.1941 12.7087 54.2874 12.722C54.3807 12.722 54.4741 12.7287 54.5674 12.742C54.6741 12.7553 54.7674 12.7687 54.8474 12.782C54.9274 12.7953 55.0074 12.8153 55.0874 12.842C55.2341 12.882 55.3541 12.9487 55.4474 13.042C55.5941 13.1753 55.6874 13.3087 55.7274 13.442Z" fill="#00AE31"/>
<path d="M45.68 10.202C45.68 10.602 45.66 11.0087 45.62 11.422C45.58 11.822 45.5 12.2153 45.38 12.602C45.26 12.9753 45.08 13.3353 44.84 13.682C44.6 14.0153 44.2734 14.3087 43.86 14.562C43.66 14.6953 43.42 14.8087 43.14 14.902C42.8734 14.982 42.5867 15.0487 42.28 15.102C41.9867 15.1687 41.6934 15.2087 41.4 15.222C41.1067 15.2487 40.8334 15.2553 40.58 15.242C39.38 15.202 38.4067 14.9153 37.66 14.382C36.9267 13.8353 36.36 13.162 35.96 12.362C35.5734 11.562 35.32 10.6953 35.2 9.76199C35.0934 8.81532 35.0734 7.91532 35.14 7.06199C35.18 6.55532 35.2667 6.00866 35.4 5.42199C35.5467 4.83532 35.7534 4.26866 36.02 3.72199C36.3 3.17532 36.64 2.68199 37.04 2.24199C37.4534 1.80199 37.94 1.46866 38.5 1.24199C39.02 1.02866 39.5867 0.895323 40.2 0.841989C40.8267 0.775323 41.44 0.795323 42.04 0.90199C42.6534 1.00866 43.22 1.20199 43.74 1.48199C44.2734 1.76199 44.6934 2.13532 45 2.60199C45.2134 2.94866 45.38 3.36866 45.5 3.86199C45.62 4.35532 45.64 4.82866 45.56 5.28199C45.4934 5.68199 45.3534 5.96199 45.14 6.12199C44.9267 6.26866 44.6934 6.32866 44.44 6.30199C44.1867 6.26199 43.94 6.15532 43.7 5.98199C43.4734 5.79532 43.32 5.56199 43.24 5.28199C43.1467 4.97532 43.0334 4.69532 42.9 4.44199C42.7667 4.17532 42.56 3.95532 42.28 3.78199C41.96 3.58199 41.62 3.46866 41.26 3.44199C40.9134 3.41532 40.5734 3.45532 40.24 3.56199C39.92 3.66866 39.6134 3.83532 39.32 4.06199C39.04 4.28866 38.8067 4.54866 38.62 4.84199C38.3934 5.17532 38.22 5.54199 38.1 5.94199C37.98 6.32866 37.8934 6.73532 37.84 7.16199C37.7867 7.57532 37.7667 7.99532 37.78 8.42199C37.8067 8.83532 37.86 9.23532 37.94 9.62199C38.0867 10.2753 38.3134 10.8887 38.62 11.462C38.74 11.6753 38.9 11.8687 39.1 12.042C39.3134 12.202 39.5467 12.3353 39.8 12.442C40.0534 12.5353 40.32 12.5953 40.6 12.622C40.88 12.6487 41.1467 12.6287 41.4 12.562C41.76 12.4687 42.0534 12.3487 42.28 12.202C42.5067 12.042 42.6867 11.8553 42.82 11.642C42.9534 11.4287 43.04 11.1953 43.08 10.942C43.1334 10.6887 43.16 10.422 43.16 10.142V10.122C42.9867 10.122 42.8334 10.122 42.7 10.122C42.5667 10.1087 42.4667 10.102 42.4 10.102C42.1067 10.102 41.82 10.0487 41.54 9.94199C41.3 9.86199 41.12 9.73532 41 9.56199C40.8667 9.41532 40.8 9.23532 40.8 9.02199C40.8 8.94199 40.8 8.86866 40.8 8.80199C40.8134 8.72199 40.8267 8.64199 40.84 8.56199C40.88 8.45532 40.9667 8.32199 41.1 8.16199C41.18 8.09532 41.3067 8.04199 41.48 8.00199C41.56 7.97532 41.64 7.95532 41.72 7.94199C41.8 7.91532 41.8934 7.89532 42 7.88199C42.08 7.86866 42.1667 7.86199 42.26 7.86199C42.3534 7.86199 42.4467 7.86199 42.54 7.86199H44.36C44.5067 7.84866 44.6734 7.86866 44.86 7.92199C45.06 7.96199 45.2134 8.02866 45.32 8.12199C45.36 8.17532 45.4 8.22866 45.44 8.28199C45.48 8.33532 45.5134 8.39532 45.54 8.46199C45.5934 8.60866 45.6267 8.75532 45.64 8.90199C45.6534 8.98199 45.66 9.06866 45.66 9.16199C45.6734 9.24199 45.68 9.31532 45.68 9.38199V10.202Z" fill="#3455FF"/>
<path d="M26.7837 1.282C27.677 0.948666 28.4837 0.802 29.2037 0.842C29.937 0.882 30.5903 1.06867 31.1637 1.402C31.737 1.722 32.2237 2.15533 32.6237 2.702C33.037 3.24867 33.3703 3.862 33.6237 4.542C33.8237 5.04867 33.977 5.582 34.0837 6.142C34.1903 6.702 34.2503 7.262 34.2637 7.822C34.2903 8.36867 34.2703 8.90867 34.2037 9.442C34.1503 9.97533 34.057 10.4687 33.9237 10.922C33.8437 11.2287 33.7503 11.5087 33.6437 11.762C33.537 12.0153 33.4103 12.2687 33.2637 12.522C32.9303 13.0953 32.497 13.562 31.9637 13.922C31.4437 14.282 30.8703 14.5353 30.2437 14.682C29.817 14.7887 29.377 14.842 28.9237 14.842C28.4703 14.8287 28.0237 14.7687 27.5837 14.662C27.1437 14.542 26.717 14.3753 26.3037 14.162C25.9037 13.9353 25.537 13.6553 25.2037 13.322C24.7903 12.922 24.4503 12.462 24.1837 11.942C23.917 11.4087 23.7103 10.8553 23.5637 10.282C23.417 9.69533 23.3237 9.10867 23.2837 8.522C23.2437 7.93533 23.2437 7.37533 23.2837 6.842C23.3237 6.34867 23.417 5.822 23.5637 5.262C23.7237 4.702 23.9503 4.162 24.2437 3.642C24.537 3.122 24.8903 2.65533 25.3037 2.242C25.7303 1.81533 26.2237 1.49533 26.7837 1.282ZM31.4637 9.842C31.6237 9.21533 31.6903 8.50867 31.6637 7.722C31.637 6.93533 31.5103 6.19533 31.2837 5.502C31.137 5.07533 30.9503 4.702 30.7237 4.382C30.5103 4.04867 30.2503 3.79533 29.9437 3.622C29.6503 3.44867 29.3037 3.362 28.9037 3.362C28.5037 3.362 28.057 3.482 27.5637 3.722C27.2703 3.86867 27.017 4.06867 26.8037 4.322C26.6037 4.57533 26.437 4.862 26.3037 5.182C26.1837 5.502 26.0837 5.83533 26.0037 6.182C25.937 6.52867 25.897 6.862 25.8837 7.182C25.857 7.52867 25.8503 7.89533 25.8637 8.282C25.877 8.65533 25.917 9.03533 25.9837 9.422C26.0637 9.79533 26.1703 10.1553 26.3037 10.502C26.437 10.8353 26.617 11.1353 26.8437 11.402C27.1903 11.802 27.5903 12.082 28.0437 12.242C28.5103 12.3887 28.9703 12.4087 29.4237 12.302C30.157 12.142 30.717 11.6553 31.1037 10.842C31.2637 10.5487 31.3837 10.2153 31.4637 9.842Z" fill="#FF0C0C"/>
<path d="M14.9275 1.282C15.8208 0.948666 16.6275 0.802 17.3475 0.842C18.0808 0.882 18.7341 1.06867 19.3075 1.402C19.8808 1.722 20.3675 2.15533 20.7675 2.702C21.1808 3.24867 21.5141 3.862 21.7675 4.542C21.9675 5.04867 22.1208 5.582 22.2275 6.142C22.3341 6.702 22.3941 7.262 22.4075 7.822C22.4341 8.36867 22.4141 8.90867 22.3475 9.442C22.2941 9.97533 22.2008 10.4687 22.0675 10.922C21.9875 11.2287 21.8941 11.5087 21.7875 11.762C21.6808 12.0153 21.5541 12.2687 21.4075 12.522C21.0741 13.0953 20.6408 13.562 20.1075 13.922C19.5875 14.282 19.0141 14.5353 18.3875 14.682C17.9608 14.7887 17.5208 14.842 17.0675 14.842C16.6141 14.8287 16.1675 14.7687 15.7275 14.662C15.2875 14.542 14.8608 14.3753 14.4475 14.162C14.0475 13.9353 13.6808 13.6553 13.3475 13.322C12.9341 12.922 12.5941 12.462 12.3275 11.942C12.0608 11.4087 11.8541 10.8553 11.7075 10.282C11.5608 9.69533 11.4675 9.10867 11.4275 8.522C11.3875 7.93533 11.3875 7.37533 11.4275 6.842C11.4675 6.34867 11.5608 5.822 11.7075 5.262C11.8675 4.702 12.0941 4.162 12.3875 3.642C12.6808 3.122 13.0341 2.65533 13.4475 2.242C13.8741 1.81533 14.3675 1.49533 14.9275 1.282ZM19.6075 9.842C19.7675 9.21533 19.8341 8.50867 19.8075 7.722C19.7808 6.93533 19.6541 6.19533 19.4275 5.502C19.2808 5.07533 19.0941 4.702 18.8675 4.382C18.6541 4.04867 18.3941 3.79533 18.0875 3.622C17.7941 3.44867 17.4475 3.362 17.0475 3.362C16.6475 3.362 16.2008 3.482 15.7075 3.722C15.4141 3.86867 15.1608 4.06867 14.9475 4.322C14.7475 4.57533 14.5808 4.862 14.4475 5.182C14.3275 5.502 14.2275 5.83533 14.1475 6.182C14.0808 6.52867 14.0408 6.862 14.0275 7.182C14.0008 7.52867 13.9941 7.89533 14.0075 8.282C14.0208 8.65533 14.0608 9.03533 14.1275 9.422C14.2075 9.79533 14.3141 10.1553 14.4475 10.502C14.5808 10.8353 14.7608 11.1353 14.9875 11.402C15.3341 11.802 15.7341 12.082 16.1875 12.242C16.6541 12.3887 17.1141 12.4087 17.5675 12.302C18.3008 12.142 18.8608 11.6553 19.2475 10.842C19.4075 10.5487 19.5275 10.2153 19.6075 9.842Z" fill="#FFC700"/>
<path d="M10.5799 10.202C10.5799 10.602 10.5599 11.0087 10.5199 11.422C10.4799 11.822 10.3999 12.2153 10.2799 12.602C10.1599 12.9753 9.97993 13.3353 9.73993 13.682C9.49993 14.0153 9.17326 14.3087 8.75993 14.562C8.55993 14.6953 8.31993 14.8087 8.03993 14.902C7.77326 14.982 7.48659 15.0487 7.17993 15.102C6.88659 15.1687 6.59326 15.2087 6.29993 15.222C6.00659 15.2487 5.73326 15.2553 5.47993 15.242C4.27993 15.202 3.30659 14.9153 2.55993 14.382C1.82659 13.8353 1.25993 13.162 0.859926 12.362C0.47326 11.562 0.219926 10.6953 0.0999264 9.76199C-0.00674028 8.81532 -0.0267403 7.91532 0.0399264 7.06199C0.0799264 6.55532 0.166593 6.00866 0.299926 5.42199C0.446593 4.83532 0.65326 4.26866 0.919926 3.72199C1.19993 3.17532 1.53993 2.68199 1.93993 2.24199C2.35326 1.80199 2.83993 1.46866 3.39993 1.24199C3.91993 1.02866 4.48659 0.895323 5.09993 0.841989C5.72659 0.775323 6.33993 0.795323 6.93993 0.90199C7.55326 1.00866 8.11993 1.20199 8.63993 1.48199C9.17326 1.76199 9.59326 2.13532 9.89993 2.60199C10.1133 2.94866 10.2799 3.36866 10.3999 3.86199C10.5199 4.35532 10.5399 4.82866 10.4599 5.28199C10.3933 5.68199 10.2533 5.96199 10.0399 6.12199C9.82659 6.26866 9.59326 6.32866 9.33993 6.30199C9.08659 6.26199 8.83993 6.15532 8.59993 5.98199C8.37326 5.79532 8.21993 5.56199 8.13993 5.28199C8.04659 4.97532 7.93326 4.69532 7.79993 4.44199C7.66659 4.17532 7.45993 3.95532 7.17993 3.78199C6.85993 3.58199 6.51993 3.46866 6.15993 3.44199C5.81326 3.41532 5.47326 3.45532 5.13993 3.56199C4.81993 3.66866 4.51326 3.83532 4.21993 4.06199C3.93993 4.28866 3.70659 4.54866 3.51993 4.84199C3.29326 5.17532 3.11993 5.54199 2.99993 5.94199C2.87993 6.32866 2.79326 6.73532 2.73993 7.16199C2.68659 7.57532 2.66659 7.99532 2.67993 8.42199C2.70659 8.83532 2.75993 9.23532 2.83993 9.62199C2.98659 10.2753 3.21326 10.8887 3.51993 11.462C3.63993 11.6753 3.79993 11.8687 3.99993 12.042C4.21326 12.202 4.44659 12.3353 4.69993 12.442C4.95326 12.5353 5.21993 12.5953 5.49993 12.622C5.77993 12.6487 6.04659 12.6287 6.29993 12.562C6.65993 12.4687 6.95326 12.3487 7.17993 12.202C7.40659 12.042 7.58659 11.8553 7.71993 11.642C7.85326 11.4287 7.93993 11.1953 7.97993 10.942C8.03326 10.6887 8.05993 10.422 8.05993 10.142V10.122C7.88659 10.122 7.73326 10.122 7.59993 10.122C7.46659 10.1087 7.36659 10.102 7.29993 10.102C7.00659 10.102 6.71993 10.0487 6.43993 9.94199C6.19993 9.86199 6.01993 9.73532 5.89993 9.56199C5.76659 9.41532 5.69993 9.23532 5.69993 9.02199C5.69993 8.94199 5.69993 8.86866 5.69993 8.80199C5.71326 8.72199 5.72659 8.64199 5.73993 8.56199C5.77993 8.45532 5.86659 8.32199 5.99993 8.16199C6.07993 8.09532 6.20659 8.04199 6.37993 8.00199C6.45993 7.97532 6.53993 7.95532 6.61993 7.94199C6.69993 7.91532 6.79326 7.89532 6.89993 7.88199C6.97993 7.86866 7.06659 7.86199 7.15993 7.86199C7.25326 7.86199 7.34659 7.86199 7.43993 7.86199H9.25993C9.40659 7.84866 9.57326 7.86866 9.75993 7.92199C9.95993 7.96199 10.1133 8.02866 10.2199 8.12199C10.2599 8.17532 10.2999 8.22866 10.3399 8.28199C10.3799 8.33532 10.4133 8.39532 10.4399 8.46199C10.4933 8.60866 10.5266 8.75532 10.5399 8.90199C10.5533 8.98199 10.5599 9.06866 10.5599 9.16199C10.5733 9.24199 10.5799 9.31532 10.5799 9.38199V10.202Z" fill="#00AE31"/>
</svg>
