<svg width="80" height="80" viewBox="0 0 80 80" fill="none" xmlns="http://www.w3.org/2000/svg">
<path fill-rule="evenodd" clip-rule="evenodd" d="M8 0H0V8H8V0ZM4 1C2.34315 1 1 2.34315 1 4C1 5.65685 2.34315 7 4 7C5.65685 7 7 5.65685 7 4C7 2.34315 5.65685 1 4 1Z" fill="black" fill-opacity="0.33"/>
<path fill-rule="evenodd" clip-rule="evenodd" d="M16 0H8V8H16V0ZM12 1C10.3431 1 9 2.34315 9 4C9 5.65685 10.3431 7 12 7C13.6569 7 15 5.65685 15 4C15 2.34315 13.6569 1 12 1Z" fill="black" fill-opacity="0.33"/>
<path fill-rule="evenodd" clip-rule="evenodd" d="M24 0H16V8H24V0ZM20 1C18.3431 1 17 2.34315 17 4C17 5.65685 18.3431 7 20 7C21.6569 7 23 5.65685 23 4C23 2.34315 21.6569 1 20 1Z" fill="black" fill-opacity="0.33"/>
<path fill-rule="evenodd" clip-rule="evenodd" d="M32 0H24V8H32V0ZM28 1C26.3431 1 25 2.34315 25 4C25 5.65685 26.3431 7 28 7C29.6569 7 31 5.65685 31 4C31 2.34315 29.6569 1 28 1Z" fill="black" fill-opacity="0.33"/>
<path fill-rule="evenodd" clip-rule="evenodd" d="M40 0H32V8H40V0ZM36 1C34.3431 1 33 2.34315 33 4C33 5.65685 34.3431 7 36 7C37.6569 7 39 5.65685 39 4C39 2.34315 37.6569 1 36 1Z" fill="black" fill-opacity="0.33"/>
<path fill-rule="evenodd" clip-rule="evenodd" d="M48 0H40V8H48V0ZM44 1C42.3431 1 41 2.34315 41 4C41 5.65685 42.3431 7 44 7C45.6569 7 47 5.65685 47 4C47 2.34315 45.6569 1 44 1Z" fill="black" fill-opacity="0.33"/>
<path fill-rule="evenodd" clip-rule="evenodd" d="M56 0H48V8H56V0ZM52 1C50.3431 1 49 2.34315 49 4C49 5.65685 50.3431 7 52 7C53.6569 7 55 5.65685 55 4C55 2.34315 53.6569 1 52 1Z" fill="black" fill-opacity="0.33"/>
<path fill-rule="evenodd" clip-rule="evenodd" d="M64 0H56V8H64V0ZM60 1C58.3431 1 57 2.34315 57 4C57 5.65685 58.3431 7 60 7C61.6569 7 63 5.65685 63 4C63 2.34315 61.6569 1 60 1Z" fill="black" fill-opacity="0.33"/>
<path fill-rule="evenodd" clip-rule="evenodd" d="M72 0H64V8H72V0ZM68 1C66.3431 1 65 2.34315 65 4C65 5.65685 66.3431 7 68 7C69.6569 7 71 5.65685 71 4C71 2.34315 69.6569 1 68 1Z" fill="black" fill-opacity="0.33"/>
<path fill-rule="evenodd" clip-rule="evenodd" d="M80 0H72V8H80V0ZM76 1C74.3431 1 73 2.34315 73 4C73 5.65685 74.3431 7 76 7C77.6569 7 79 5.65685 79 4C79 2.34315 77.6569 1 76 1Z" fill="black" fill-opacity="0.33"/>
<path fill-rule="evenodd" clip-rule="evenodd" d="M8 8H0V16H8V8ZM4 9C2.34315 9 1 10.3431 1 12C1 13.6569 2.34315 15 4 15C5.65685 15 7 13.6569 7 12C7 10.3431 5.65685 9 4 9Z" fill="black" fill-opacity="0.33"/>
<path fill-rule="evenodd" clip-rule="evenodd" d="M16 8H8V16H16V8ZM12 9C10.3431 9 9 10.3431 9 12C9 13.6569 10.3431 15 12 15C13.6569 15 15 13.6569 15 12C15 10.3431 13.6569 9 12 9Z" fill="black" fill-opacity="0.33"/>
<path fill-rule="evenodd" clip-rule="evenodd" d="M24 8H16V16H24V8ZM20 9C18.3431 9 17 10.3431 17 12C17 13.6569 18.3431 15 20 15C21.6569 15 23 13.6569 23 12C23 10.3431 21.6569 9 20 9Z" fill="black" fill-opacity="0.33"/>
<path fill-rule="evenodd" clip-rule="evenodd" d="M32 8H24V16H32V8ZM28 9C26.3431 9 25 10.3431 25 12C25 13.6569 26.3431 15 28 15C29.6569 15 31 13.6569 31 12C31 10.3431 29.6569 9 28 9Z" fill="black" fill-opacity="0.33"/>
<path fill-rule="evenodd" clip-rule="evenodd" d="M40 8H32V16H40V8ZM36 9C34.3431 9 33 10.3431 33 12C33 13.6569 34.3431 15 36 15C37.6569 15 39 13.6569 39 12C39 10.3431 37.6569 9 36 9Z" fill="black" fill-opacity="0.33"/>
<path fill-rule="evenodd" clip-rule="evenodd" d="M48 8H40V16H48V8ZM44 9C42.3431 9 41 10.3431 41 12C41 13.6569 42.3431 15 44 15C45.6569 15 47 13.6569 47 12C47 10.3431 45.6569 9 44 9Z" fill="black" fill-opacity="0.33"/>
<path fill-rule="evenodd" clip-rule="evenodd" d="M56 8H48V16H56V8ZM52 9C50.3431 9 49 10.3431 49 12C49 13.6569 50.3431 15 52 15C53.6569 15 55 13.6569 55 12C55 10.3431 53.6569 9 52 9Z" fill="black" fill-opacity="0.33"/>
<path fill-rule="evenodd" clip-rule="evenodd" d="M64 8H56V16H64V8ZM60 9C58.3431 9 57 10.3431 57 12C57 13.6569 58.3431 15 60 15C61.6569 15 63 13.6569 63 12C63 10.3431 61.6569 9 60 9Z" fill="black" fill-opacity="0.33"/>
<path fill-rule="evenodd" clip-rule="evenodd" d="M72 8H64V16H72V8ZM68 9C66.3431 9 65 10.3431 65 12C65 13.6569 66.3431 15 68 15C69.6569 15 71 13.6569 71 12C71 10.3431 69.6569 9 68 9Z" fill="black" fill-opacity="0.33"/>
<path fill-rule="evenodd" clip-rule="evenodd" d="M80 8H72V16H80V8ZM76 9C74.3431 9 73 10.3431 73 12C73 13.6569 74.3431 15 76 15C77.6569 15 79 13.6569 79 12C79 10.3431 77.6569 9 76 9Z" fill="black" fill-opacity="0.33"/>
<path fill-rule="evenodd" clip-rule="evenodd" d="M8 16H0V24H8V16ZM4 17C2.34315 17 1 18.3431 1 20C1 21.6569 2.34315 23 4 23C5.65685 23 7 21.6569 7 20C7 18.3431 5.65685 17 4 17Z" fill="black" fill-opacity="0.33"/>
<path fill-rule="evenodd" clip-rule="evenodd" d="M16 16H8V24H16V16ZM12 17C10.3431 17 9 18.3431 9 20C9 21.6569 10.3431 23 12 23C13.6569 23 15 21.6569 15 20C15 18.3431 13.6569 17 12 17Z" fill="black" fill-opacity="0.33"/>
<path fill-rule="evenodd" clip-rule="evenodd" d="M24 16H16V24H24V16ZM20 17C18.3431 17 17 18.3431 17 20C17 21.6569 18.3431 23 20 23C21.6569 23 23 21.6569 23 20C23 18.3431 21.6569 17 20 17Z" fill="black" fill-opacity="0.33"/>
<path fill-rule="evenodd" clip-rule="evenodd" d="M32 16H24V24H32V16ZM28 17C26.3431 17 25 18.3431 25 20C25 21.6569 26.3431 23 28 23C29.6569 23 31 21.6569 31 20C31 18.3431 29.6569 17 28 17Z" fill="black" fill-opacity="0.33"/>
<path fill-rule="evenodd" clip-rule="evenodd" d="M40 16H32V24H40V16ZM36 17C34.3431 17 33 18.3431 33 20C33 21.6569 34.3431 23 36 23C37.6569 23 39 21.6569 39 20C39 18.3431 37.6569 17 36 17Z" fill="black" fill-opacity="0.33"/>
<path fill-rule="evenodd" clip-rule="evenodd" d="M48 16H40V24H48V16ZM44 17C42.3431 17 41 18.3431 41 20C41 21.6569 42.3431 23 44 23C45.6569 23 47 21.6569 47 20C47 18.3431 45.6569 17 44 17Z" fill="black" fill-opacity="0.33"/>
<path fill-rule="evenodd" clip-rule="evenodd" d="M56 16H48V24H56V16ZM52 17C50.3431 17 49 18.3431 49 20C49 21.6569 50.3431 23 52 23C53.6569 23 55 21.6569 55 20C55 18.3431 53.6569 17 52 17Z" fill="black" fill-opacity="0.33"/>
<path fill-rule="evenodd" clip-rule="evenodd" d="M64 16H56V24H64V16ZM60 17C58.3431 17 57 18.3431 57 20C57 21.6569 58.3431 23 60 23C61.6569 23 63 21.6569 63 20C63 18.3431 61.6569 17 60 17Z" fill="black" fill-opacity="0.33"/>
<path fill-rule="evenodd" clip-rule="evenodd" d="M72 16H64V24H72V16ZM68 17C66.3431 17 65 18.3431 65 20C65 21.6569 66.3431 23 68 23C69.6569 23 71 21.6569 71 20C71 18.3431 69.6569 17 68 17Z" fill="black" fill-opacity="0.33"/>
<path fill-rule="evenodd" clip-rule="evenodd" d="M80 16H72V24H80V16ZM76 17C74.3431 17 73 18.3431 73 20C73 21.6569 74.3431 23 76 23C77.6569 23 79 21.6569 79 20C79 18.3431 77.6569 17 76 17Z" fill="black" fill-opacity="0.33"/>
<path fill-rule="evenodd" clip-rule="evenodd" d="M8 24H0V32H8V24ZM4 25C2.34315 25 1 26.3431 1 28C1 29.6569 2.34315 31 4 31C5.65685 31 7 29.6569 7 28C7 26.3431 5.65685 25 4 25Z" fill="black" fill-opacity="0.33"/>
<path fill-rule="evenodd" clip-rule="evenodd" d="M16 24H8V32H16V24ZM12 25C10.3431 25 9 26.3431 9 28C9 29.6569 10.3431 31 12 31C13.6569 31 15 29.6569 15 28C15 26.3431 13.6569 25 12 25Z" fill="black" fill-opacity="0.33"/>
<path fill-rule="evenodd" clip-rule="evenodd" d="M24 24H16V32H24V24ZM20 25C18.3431 25 17 26.3431 17 28C17 29.6569 18.3431 31 20 31C21.6569 31 23 29.6569 23 28C23 26.3431 21.6569 25 20 25Z" fill="black" fill-opacity="0.33"/>
<path fill-rule="evenodd" clip-rule="evenodd" d="M32 24H24V32H32V24ZM28 25C26.3431 25 25 26.3431 25 28C25 29.6569 26.3431 31 28 31C29.6569 31 31 29.6569 31 28C31 26.3431 29.6569 25 28 25Z" fill="black" fill-opacity="0.33"/>
<path fill-rule="evenodd" clip-rule="evenodd" d="M40 24H32V32H40V24ZM36 25C34.3431 25 33 26.3431 33 28C33 29.6569 34.3431 31 36 31C37.6569 31 39 29.6569 39 28C39 26.3431 37.6569 25 36 25Z" fill="black" fill-opacity="0.33"/>
<path fill-rule="evenodd" clip-rule="evenodd" d="M48 24H40V32H48V24ZM44 25C42.3431 25 41 26.3431 41 28C41 29.6569 42.3431 31 44 31C45.6569 31 47 29.6569 47 28C47 26.3431 45.6569 25 44 25Z" fill="black" fill-opacity="0.33"/>
<path fill-rule="evenodd" clip-rule="evenodd" d="M56 24H48V32H56V24ZM52 25C50.3431 25 49 26.3431 49 28C49 29.6569 50.3431 31 52 31C53.6569 31 55 29.6569 55 28C55 26.3431 53.6569 25 52 25Z" fill="black" fill-opacity="0.33"/>
<path fill-rule="evenodd" clip-rule="evenodd" d="M64 24H56V32H64V24ZM60 25C58.3431 25 57 26.3431 57 28C57 29.6569 58.3431 31 60 31C61.6569 31 63 29.6569 63 28C63 26.3431 61.6569 25 60 25Z" fill="black" fill-opacity="0.33"/>
<path fill-rule="evenodd" clip-rule="evenodd" d="M72 24H64V32H72V24ZM68 25C66.3431 25 65 26.3431 65 28C65 29.6569 66.3431 31 68 31C69.6569 31 71 29.6569 71 28C71 26.3431 69.6569 25 68 25Z" fill="black" fill-opacity="0.33"/>
<path fill-rule="evenodd" clip-rule="evenodd" d="M80 24H72V32H80V24ZM76 25C74.3431 25 73 26.3431 73 28C73 29.6569 74.3431 31 76 31C77.6569 31 79 29.6569 79 28C79 26.3431 77.6569 25 76 25Z" fill="black" fill-opacity="0.33"/>
<path fill-rule="evenodd" clip-rule="evenodd" d="M8 32H0V40H8V32ZM4 33C2.34315 33 1 34.3431 1 36C1 37.6569 2.34315 39 4 39C5.65685 39 7 37.6569 7 36C7 34.3431 5.65685 33 4 33Z" fill="black" fill-opacity="0.33"/>
<path fill-rule="evenodd" clip-rule="evenodd" d="M16 32H8V40H16V32ZM12 33C10.3431 33 9 34.3431 9 36C9 37.6569 10.3431 39 12 39C13.6569 39 15 37.6569 15 36C15 34.3431 13.6569 33 12 33Z" fill="black" fill-opacity="0.33"/>
<path fill-rule="evenodd" clip-rule="evenodd" d="M24 32H16V40H24V32ZM20 33C18.3431 33 17 34.3431 17 36C17 37.6569 18.3431 39 20 39C21.6569 39 23 37.6569 23 36C23 34.3431 21.6569 33 20 33Z" fill="black" fill-opacity="0.33"/>
<path fill-rule="evenodd" clip-rule="evenodd" d="M32 32H24V40H32V32ZM28 33C26.3431 33 25 34.3431 25 36C25 37.6569 26.3431 39 28 39C29.6569 39 31 37.6569 31 36C31 34.3431 29.6569 33 28 33Z" fill="black" fill-opacity="0.33"/>
<path fill-rule="evenodd" clip-rule="evenodd" d="M40 32H32V40H40V32ZM36 33C34.3431 33 33 34.3431 33 36C33 37.6569 34.3431 39 36 39C37.6569 39 39 37.6569 39 36C39 34.3431 37.6569 33 36 33Z" fill="black" fill-opacity="0.33"/>
<path fill-rule="evenodd" clip-rule="evenodd" d="M48 32H40V40H48V32ZM44 33C42.3431 33 41 34.3431 41 36C41 37.6569 42.3431 39 44 39C45.6569 39 47 37.6569 47 36C47 34.3431 45.6569 33 44 33Z" fill="black" fill-opacity="0.33"/>
<path fill-rule="evenodd" clip-rule="evenodd" d="M56 32H48V40H56V32ZM52 33C50.3431 33 49 34.3431 49 36C49 37.6569 50.3431 39 52 39C53.6569 39 55 37.6569 55 36C55 34.3431 53.6569 33 52 33Z" fill="black" fill-opacity="0.33"/>
<path fill-rule="evenodd" clip-rule="evenodd" d="M64 32H56V40H64V32ZM60 33C58.3431 33 57 34.3431 57 36C57 37.6569 58.3431 39 60 39C61.6569 39 63 37.6569 63 36C63 34.3431 61.6569 33 60 33Z" fill="black" fill-opacity="0.33"/>
<path fill-rule="evenodd" clip-rule="evenodd" d="M72 32H64V40H72V32ZM68 33C66.3431 33 65 34.3431 65 36C65 37.6569 66.3431 39 68 39C69.6569 39 71 37.6569 71 36C71 34.3431 69.6569 33 68 33Z" fill="black" fill-opacity="0.33"/>
<path fill-rule="evenodd" clip-rule="evenodd" d="M80 32H72V40H80V32ZM76 33C74.3431 33 73 34.3431 73 36C73 37.6569 74.3431 39 76 39C77.6569 39 79 37.6569 79 36C79 34.3431 77.6569 33 76 33Z" fill="black" fill-opacity="0.33"/>
<path fill-rule="evenodd" clip-rule="evenodd" d="M8 40H0V48H8V40ZM4 41C2.34315 41 1 42.3431 1 44C1 45.6569 2.34315 47 4 47C5.65685 47 7 45.6569 7 44C7 42.3431 5.65685 41 4 41Z" fill="black" fill-opacity="0.33"/>
<path fill-rule="evenodd" clip-rule="evenodd" d="M16 40H8V48H16V40ZM12 41C10.3431 41 9 42.3431 9 44C9 45.6569 10.3431 47 12 47C13.6569 47 15 45.6569 15 44C15 42.3431 13.6569 41 12 41Z" fill="black" fill-opacity="0.33"/>
<path fill-rule="evenodd" clip-rule="evenodd" d="M24 40H16V48H24V40ZM20 41C18.3431 41 17 42.3431 17 44C17 45.6569 18.3431 47 20 47C21.6569 47 23 45.6569 23 44C23 42.3431 21.6569 41 20 41Z" fill="black" fill-opacity="0.33"/>
<path fill-rule="evenodd" clip-rule="evenodd" d="M32 40H24V48H32V40ZM28 41C26.3431 41 25 42.3431 25 44C25 45.6569 26.3431 47 28 47C29.6569 47 31 45.6569 31 44C31 42.3431 29.6569 41 28 41Z" fill="black" fill-opacity="0.33"/>
<path fill-rule="evenodd" clip-rule="evenodd" d="M40 40H32V48H40V40ZM36 41C34.3431 41 33 42.3431 33 44C33 45.6569 34.3431 47 36 47C37.6569 47 39 45.6569 39 44C39 42.3431 37.6569 41 36 41Z" fill="black" fill-opacity="0.33"/>
<path fill-rule="evenodd" clip-rule="evenodd" d="M48 40H40V48H48V40ZM44 41C42.3431 41 41 42.3431 41 44C41 45.6569 42.3431 47 44 47C45.6569 47 47 45.6569 47 44C47 42.3431 45.6569 41 44 41Z" fill="black" fill-opacity="0.33"/>
<path fill-rule="evenodd" clip-rule="evenodd" d="M56 40H48V48H56V40ZM52 41C50.3431 41 49 42.3431 49 44C49 45.6569 50.3431 47 52 47C53.6569 47 55 45.6569 55 44C55 42.3431 53.6569 41 52 41Z" fill="black" fill-opacity="0.33"/>
<path fill-rule="evenodd" clip-rule="evenodd" d="M64 40H56V48H64V40ZM60 41C58.3431 41 57 42.3431 57 44C57 45.6569 58.3431 47 60 47C61.6569 47 63 45.6569 63 44C63 42.3431 61.6569 41 60 41Z" fill="black" fill-opacity="0.33"/>
<path fill-rule="evenodd" clip-rule="evenodd" d="M72 40H64V48H72V40ZM68 41C66.3431 41 65 42.3431 65 44C65 45.6569 66.3431 47 68 47C69.6569 47 71 45.6569 71 44C71 42.3431 69.6569 41 68 41Z" fill="black" fill-opacity="0.33"/>
<path fill-rule="evenodd" clip-rule="evenodd" d="M80 40H72V48H80V40ZM76 41C74.3431 41 73 42.3431 73 44C73 45.6569 74.3431 47 76 47C77.6569 47 79 45.6569 79 44C79 42.3431 77.6569 41 76 41Z" fill="black" fill-opacity="0.33"/>
<path fill-rule="evenodd" clip-rule="evenodd" d="M8 48H0V56H8V48ZM4 49C2.34315 49 1 50.3431 1 52C1 53.6569 2.34315 55 4 55C5.65685 55 7 53.6569 7 52C7 50.3431 5.65685 49 4 49Z" fill="black" fill-opacity="0.33"/>
<path fill-rule="evenodd" clip-rule="evenodd" d="M16 48H8V56H16V48ZM12 49C10.3431 49 9 50.3431 9 52C9 53.6569 10.3431 55 12 55C13.6569 55 15 53.6569 15 52C15 50.3431 13.6569 49 12 49Z" fill="black" fill-opacity="0.33"/>
<path fill-rule="evenodd" clip-rule="evenodd" d="M24 48H16V56H24V48ZM20 49C18.3431 49 17 50.3431 17 52C17 53.6569 18.3431 55 20 55C21.6569 55 23 53.6569 23 52C23 50.3431 21.6569 49 20 49Z" fill="black" fill-opacity="0.33"/>
<path fill-rule="evenodd" clip-rule="evenodd" d="M32 48H24V56H32V48ZM28 49C26.3431 49 25 50.3431 25 52C25 53.6569 26.3431 55 28 55C29.6569 55 31 53.6569 31 52C31 50.3431 29.6569 49 28 49Z" fill="black" fill-opacity="0.33"/>
<path fill-rule="evenodd" clip-rule="evenodd" d="M40 48H32V56H40V48ZM36 49C34.3431 49 33 50.3431 33 52C33 53.6569 34.3431 55 36 55C37.6569 55 39 53.6569 39 52C39 50.3431 37.6569 49 36 49Z" fill="black" fill-opacity="0.33"/>
<path fill-rule="evenodd" clip-rule="evenodd" d="M48 48H40V56H48V48ZM44 49C42.3431 49 41 50.3431 41 52C41 53.6569 42.3431 55 44 55C45.6569 55 47 53.6569 47 52C47 50.3431 45.6569 49 44 49Z" fill="black" fill-opacity="0.33"/>
<path fill-rule="evenodd" clip-rule="evenodd" d="M56 48H48V56H56V48ZM52 49C50.3431 49 49 50.3431 49 52C49 53.6569 50.3431 55 52 55C53.6569 55 55 53.6569 55 52C55 50.3431 53.6569 49 52 49Z" fill="black" fill-opacity="0.33"/>
<path fill-rule="evenodd" clip-rule="evenodd" d="M64 48H56V56H64V48ZM60 49C58.3431 49 57 50.3431 57 52C57 53.6569 58.3431 55 60 55C61.6569 55 63 53.6569 63 52C63 50.3431 61.6569 49 60 49Z" fill="black" fill-opacity="0.33"/>
<path fill-rule="evenodd" clip-rule="evenodd" d="M72 48H64V56H72V48ZM68 49C66.3431 49 65 50.3431 65 52C65 53.6569 66.3431 55 68 55C69.6569 55 71 53.6569 71 52C71 50.3431 69.6569 49 68 49Z" fill="black" fill-opacity="0.33"/>
<path fill-rule="evenodd" clip-rule="evenodd" d="M80 48H72V56H80V48ZM76 49C74.3431 49 73 50.3431 73 52C73 53.6569 74.3431 55 76 55C77.6569 55 79 53.6569 79 52C79 50.3431 77.6569 49 76 49Z" fill="black" fill-opacity="0.33"/>
<path fill-rule="evenodd" clip-rule="evenodd" d="M8 56H0V64H8V56ZM4 57C2.34315 57 1 58.3431 1 60C1 61.6569 2.34315 63 4 63C5.65685 63 7 61.6569 7 60C7 58.3431 5.65685 57 4 57Z" fill="black" fill-opacity="0.33"/>
<path fill-rule="evenodd" clip-rule="evenodd" d="M16 56H8V64H16V56ZM12 57C10.3431 57 9 58.3431 9 60C9 61.6569 10.3431 63 12 63C13.6569 63 15 61.6569 15 60C15 58.3431 13.6569 57 12 57Z" fill="black" fill-opacity="0.33"/>
<path fill-rule="evenodd" clip-rule="evenodd" d="M24 56H16V64H24V56ZM20 57C18.3431 57 17 58.3431 17 60C17 61.6569 18.3431 63 20 63C21.6569 63 23 61.6569 23 60C23 58.3431 21.6569 57 20 57Z" fill="black" fill-opacity="0.33"/>
<path fill-rule="evenodd" clip-rule="evenodd" d="M32 56H24V64H32V56ZM28 57C26.3431 57 25 58.3431 25 60C25 61.6569 26.3431 63 28 63C29.6569 63 31 61.6569 31 60C31 58.3431 29.6569 57 28 57Z" fill="black" fill-opacity="0.33"/>
<path fill-rule="evenodd" clip-rule="evenodd" d="M40 56H32V64H40V56ZM36 57C34.3431 57 33 58.3431 33 60C33 61.6569 34.3431 63 36 63C37.6569 63 39 61.6569 39 60C39 58.3431 37.6569 57 36 57Z" fill="black" fill-opacity="0.33"/>
<path fill-rule="evenodd" clip-rule="evenodd" d="M48 56H40V64H48V56ZM44 57C42.3431 57 41 58.3431 41 60C41 61.6569 42.3431 63 44 63C45.6569 63 47 61.6569 47 60C47 58.3431 45.6569 57 44 57Z" fill="black" fill-opacity="0.33"/>
<path fill-rule="evenodd" clip-rule="evenodd" d="M56 56H48V64H56V56ZM52 57C50.3431 57 49 58.3431 49 60C49 61.6569 50.3431 63 52 63C53.6569 63 55 61.6569 55 60C55 58.3431 53.6569 57 52 57Z" fill="black" fill-opacity="0.33"/>
<path fill-rule="evenodd" clip-rule="evenodd" d="M64 56H56V64H64V56ZM60 57C58.3431 57 57 58.3431 57 60C57 61.6569 58.3431 63 60 63C61.6569 63 63 61.6569 63 60C63 58.3431 61.6569 57 60 57Z" fill="black" fill-opacity="0.33"/>
<path fill-rule="evenodd" clip-rule="evenodd" d="M72 56H64V64H72V56ZM68 57C66.3431 57 65 58.3431 65 60C65 61.6569 66.3431 63 68 63C69.6569 63 71 61.6569 71 60C71 58.3431 69.6569 57 68 57Z" fill="black" fill-opacity="0.33"/>
<path fill-rule="evenodd" clip-rule="evenodd" d="M80 56H72V64H80V56ZM76 57C74.3431 57 73 58.3431 73 60C73 61.6569 74.3431 63 76 63C77.6569 63 79 61.6569 79 60C79 58.3431 77.6569 57 76 57Z" fill="black" fill-opacity="0.33"/>
<path fill-rule="evenodd" clip-rule="evenodd" d="M8 64H0V72H8V64ZM4 65C2.34315 65 1 66.3431 1 68C1 69.6569 2.34315 71 4 71C5.65685 71 7 69.6569 7 68C7 66.3431 5.65685 65 4 65Z" fill="black" fill-opacity="0.33"/>
<path fill-rule="evenodd" clip-rule="evenodd" d="M16 64H8V72H16V64ZM12 65C10.3431 65 9 66.3431 9 68C9 69.6569 10.3431 71 12 71C13.6569 71 15 69.6569 15 68C15 66.3431 13.6569 65 12 65Z" fill="black" fill-opacity="0.33"/>
<path fill-rule="evenodd" clip-rule="evenodd" d="M24 64H16V72H24V64ZM20 65C18.3431 65 17 66.3431 17 68C17 69.6569 18.3431 71 20 71C21.6569 71 23 69.6569 23 68C23 66.3431 21.6569 65 20 65Z" fill="black" fill-opacity="0.33"/>
<path fill-rule="evenodd" clip-rule="evenodd" d="M32 64H24V72H32V64ZM28 65C26.3431 65 25 66.3431 25 68C25 69.6569 26.3431 71 28 71C29.6569 71 31 69.6569 31 68C31 66.3431 29.6569 65 28 65Z" fill="black" fill-opacity="0.33"/>
<path fill-rule="evenodd" clip-rule="evenodd" d="M40 64H32V72H40V64ZM36 65C34.3431 65 33 66.3431 33 68C33 69.6569 34.3431 71 36 71C37.6569 71 39 69.6569 39 68C39 66.3431 37.6569 65 36 65Z" fill="black" fill-opacity="0.33"/>
<path fill-rule="evenodd" clip-rule="evenodd" d="M48 64H40V72H48V64ZM44 65C42.3431 65 41 66.3431 41 68C41 69.6569 42.3431 71 44 71C45.6569 71 47 69.6569 47 68C47 66.3431 45.6569 65 44 65Z" fill="black" fill-opacity="0.33"/>
<path fill-rule="evenodd" clip-rule="evenodd" d="M56 64H48V72H56V64ZM52 65C50.3431 65 49 66.3431 49 68C49 69.6569 50.3431 71 52 71C53.6569 71 55 69.6569 55 68C55 66.3431 53.6569 65 52 65Z" fill="black" fill-opacity="0.33"/>
<path fill-rule="evenodd" clip-rule="evenodd" d="M64 64H56V72H64V64ZM60 65C58.3431 65 57 66.3431 57 68C57 69.6569 58.3431 71 60 71C61.6569 71 63 69.6569 63 68C63 66.3431 61.6569 65 60 65Z" fill="black" fill-opacity="0.33"/>
<path fill-rule="evenodd" clip-rule="evenodd" d="M72 64H64V72H72V64ZM68 65C66.3431 65 65 66.3431 65 68C65 69.6569 66.3431 71 68 71C69.6569 71 71 69.6569 71 68C71 66.3431 69.6569 65 68 65Z" fill="black" fill-opacity="0.33"/>
<path fill-rule="evenodd" clip-rule="evenodd" d="M80 64H72V72H80V64ZM76 65C74.3431 65 73 66.3431 73 68C73 69.6569 74.3431 71 76 71C77.6569 71 79 69.6569 79 68C79 66.3431 77.6569 65 76 65Z" fill="black" fill-opacity="0.33"/>
<path fill-rule="evenodd" clip-rule="evenodd" d="M8 72H0V80H8V72ZM4 73C2.34315 73 1 74.3431 1 76C1 77.6569 2.34315 79 4 79C5.65685 79 7 77.6569 7 76C7 74.3431 5.65685 73 4 73Z" fill="black" fill-opacity="0.33"/>
<path fill-rule="evenodd" clip-rule="evenodd" d="M16 72H8V80H16V72ZM12 73C10.3431 73 9 74.3431 9 76C9 77.6569 10.3431 79 12 79C13.6569 79 15 77.6569 15 76C15 74.3431 13.6569 73 12 73Z" fill="black" fill-opacity="0.33"/>
<path fill-rule="evenodd" clip-rule="evenodd" d="M24 72H16V80H24V72ZM20 73C18.3431 73 17 74.3431 17 76C17 77.6569 18.3431 79 20 79C21.6569 79 23 77.6569 23 76C23 74.3431 21.6569 73 20 73Z" fill="black" fill-opacity="0.33"/>
<path fill-rule="evenodd" clip-rule="evenodd" d="M32 72H24V80H32V72ZM28 73C26.3431 73 25 74.3431 25 76C25 77.6569 26.3431 79 28 79C29.6569 79 31 77.6569 31 76C31 74.3431 29.6569 73 28 73Z" fill="black" fill-opacity="0.33"/>
<path fill-rule="evenodd" clip-rule="evenodd" d="M40 72H32V80H40V72ZM36 73C34.3431 73 33 74.3431 33 76C33 77.6569 34.3431 79 36 79C37.6569 79 39 77.6569 39 76C39 74.3431 37.6569 73 36 73Z" fill="black" fill-opacity="0.33"/>
<path fill-rule="evenodd" clip-rule="evenodd" d="M48 72H40V80H48V72ZM44 73C42.3431 73 41 74.3431 41 76C41 77.6569 42.3431 79 44 79C45.6569 79 47 77.6569 47 76C47 74.3431 45.6569 73 44 73Z" fill="black" fill-opacity="0.33"/>
<path fill-rule="evenodd" clip-rule="evenodd" d="M56 72H48V80H56V72ZM52 73C50.3431 73 49 74.3431 49 76C49 77.6569 50.3431 79 52 79C53.6569 79 55 77.6569 55 76C55 74.3431 53.6569 73 52 73Z" fill="black" fill-opacity="0.33"/>
<path fill-rule="evenodd" clip-rule="evenodd" d="M64 72H56V80H64V72ZM60 73C58.3431 73 57 74.3431 57 76C57 77.6569 58.3431 79 60 79C61.6569 79 63 77.6569 63 76C63 74.3431 61.6569 73 60 73Z" fill="black" fill-opacity="0.33"/>
<path fill-rule="evenodd" clip-rule="evenodd" d="M72 72H64V80H72V72ZM68 73C66.3431 73 65 74.3431 65 76C65 77.6569 66.3431 79 68 79C69.6569 79 71 77.6569 71 76C71 74.3431 69.6569 73 68 73Z" fill="black" fill-opacity="0.33"/>
<path fill-rule="evenodd" clip-rule="evenodd" d="M80 72H72V80H80V72ZM76 73C74.3431 73 73 74.3431 73 76C73 77.6569 74.3431 79 76 79C77.6569 79 79 77.6569 79 76C79 74.3431 77.6569 73 76 73Z" fill="black" fill-opacity="0.33"/>
</svg>
